<svg xmlns="http://www.w3.org/2000/svg" width="15" height="22" viewBox="0 0 15 22">
    <path fill="#000" fill-rule="nonzero" d="M.469 0a.391.391 0 0 0-.333.605L3.57 8.176a7.44 7.44 0 0 0-3.492 6.308c0 4.103 3.327 7.438 7.422 7.438 4.094 0 7.422-3.335 7.422-7.438a7.44 7.44 0 0 0-3.493-6.308L14.862.608a.392.392 0 0 0-.33-.608H9.843a.391.391 0 0 0-.382.287L7.5 4.613 5.537.286A.39.39 0 0 0 5.156 0H.469zm.606.783h.705l3.065 6.755c-.2.078-.397.163-.59.257L1.075.783zm1.563 0h2.266l2.843 6.268a7.398 7.398 0 0 0-2.154.244L2.638.783zm7.457 0h2.267L9.408 7.296a7.366 7.366 0 0 0-.764-.161l-.715-1.576L10.095.783zm3.125 0h.704l-3.18 7.012a7.364 7.364 0 0 0-.588-.256L13.22.783zM7.5 7.829a6.642 6.642 0 0 1 6.64 6.655 6.642 6.642 0 1 1-13.28 0A6.642 6.642 0 0 1 7.5 7.83zm0 1.086c-3.065 0-5.558 2.498-5.558 5.57 0 3.07 2.493 5.568 5.558 5.568 3.064 0 5.557-2.498 5.557-5.569 0-3.07-2.493-5.569-5.557-5.569zm0 .783a4.775 4.775 0 0 1 4.776 4.786 4.775 4.775 0 1 1-9.552 0A4.775 4.775 0 0 1 7.5 9.698zm.014 2.066a.39.39 0 0 0-.356.202l-.7 1.272-1.49.32a.391.391 0 0 0-.204.65l.99 1.06-.157 1.519a.391.391 0 0 0 .554.395l1.313-.616 1.392.62a.39.39 0 0 0 .546-.407l-.178-1.441 1.018-1.136a.392.392 0 0 0-.217-.646l-1.423-.276-.764-1.32a.39.39 0 0 0-.324-.196zm-.006 1.186l.507.877a.39.39 0 0 0 .264.188l.92.178-.675.754a.392.392 0 0 0-.098.31l.116.932-.924-.41a.39.39 0 0 0-.324.002l-.849.399.104-1.008a.392.392 0 0 0-.103-.308l-.64-.686.989-.212a.39.39 0 0 0 .26-.194l.453-.822z"/>
</svg>
